# xmcd
#
# Track frame offsets: 
#        150
#        5558
#        6994
#        19078
#        19726
#        38522
#        40422
#        55170
#
# Disc length: 765 seconds
#
# Revision: 0
# Processed by: cddbd v1.5.2PL0 Copyright (c) Steve Scherf et al.
# Submitted via: ExactAudioCopy v0.99pb5
#
DISCID=5702fb08
DTITLE=Highlands Country - June 12, 2011
DYEAR=2011
DGENRE=Country
TTITLE0=Thank God I'm A Country Boy (partial)
TTITLE1=Talking
TTITLE2=Are You Washed In The Blood
TTITLE3=Talking
TTITLE4=Everlasting God
TTITLE5=Talking
TTITLE6=The Things We Don't
TTITLE7=Talking
EXTD=
EXTT0=
EXTT1=
EXTT2=
EXTT3=
EXTT4=
EXTT5=
EXTT6=
EXTT7=
PLAYORDER=
